  0
SECTION
  2
HEADER
  9
$ANGBASE
  50
0.0
  9
$ANGDIR
  70
1
  9
$MEASUREMENT
  70
1
  0
ENDSEC
  0
SECTION
  2
TABLES
  0
TABLE
  2
LTYPE
  70
4
  0
LTYPE
  5
40F
  2
CONTINUOUS
  70
0
  3
Solid line
  72
65
  73
0
  40
0.0
  0
LTYPE
  5
410
  2
DASHDOT
 70
0
  3
Dash Dot ____ _ ____ _
 72
65
 73
4
 40
2.0
 49
1.25
 49
-0.25
 49
0.25
 49
-0.25
  0
LTYPE
  5
411
  2
DASHED
 70
0
  3
Dashed __ __ __ __ __
 72
65
 73
2
 40
0.75
 49
0.5
 49
-0.25
  0
LTYPE
  5
43B
  2
DOTTED
 70
0
  3
Dotted .  .  .  .
 72
65
 73
2
 40
0.2
 49
0.0
 49
-0.2
  0
ENDTAB
  0
TABLE
  2
STYLE
  70
4
  0
STYLE
  2
KICAD
  70
0
  40
0
  41
1
  42
1
  50
0
  71
0
  3
isocp.shx
  0
STYLE
  2
KICADB
  70
0
  40
0
  41
1
  42
1
  50
0
  71
0
  3
isocp.shx
  0
STYLE
  2
KICADI
  70
0
  40
0
  41
1
  42
1
  50
15
  71
0
  3
isocp.shx
  0
STYLE
  2
KICADBI
  70
0
  40
0
  41
1
  42
1
  50
15
  71
0
  3
isocp.shx
  0
ENDTAB
  0
TABLE
  2
LAYER
  70
1
  0
LAYER
  2
BLACK
  70
0
  62
7
  6
CONTINUOUS
  0
ENDTAB
  0
ENDSEC
  0
SECTION
  2
ENTITIES
0
ARC
8
BLACK
10
211.496
20
-232.048
40
0.500047
50
-179.995
51
-90.0003
0
LINE
8
BLACK
6
CONTINUOUS
10
206.365
20
-203.448
11
193.365
21
-203.448
0
ARC
8
BLACK
10
263.515
20
-216.948
40
0.500047
50
-89.9946
51
-0.0053853
0
LINE
8
BLACK
6
CONTINUOUS
10
149.715
20
-216.948
11
149.715
21
-203.948
0
LINE
8
BLACK
6
CONTINUOUS
10
278.086
20
-135.752
11
278.086
21
-122.752
0
ARC
8
BLACK
10
144.453
20
-159.798
40
0.500047
50
-89.9946
51
-0.0053853
0
LINE
8
BLACK
6
CONTINUOUS
10
212.415
20
-217.448
11
225.415
21
-217.448
0
LINE
8
BLACK
6
CONTINUOUS
10
198.128
20
-179.348
11
211.128
21
-179.348
0
LINE
8
BLACK
6
CONTINUOUS
10
258.753
20
-146.298
11
245.753
21
-146.298
0
ARC
8
BLACK
10
293.378
20
-159.798
40
0.500047
50
-179.995
51
-89.9946
0
LINE
8
BLACK
6
CONTINUOUS
10
304.471
20
-173.023
11
310.321
21
-173.023
0
LINE
8
BLACK
6
CONTINUOUS
10
53.9652
20
-165.348
11
40.9652
21
-165.348
0
ARC
8
BLACK
10
216.961
20
-122.752
40
0.5
50
90
51
180
0
LINE
8
BLACK
6
CONTINUOUS
10
211.411
20
-135.752
11
211.411
21
-122.752
0
ARC
8
BLACK
10
202.89
20
-197.898
40
0.500047
50
-179.995
51
-89.9946
0
ARC
8
BLACK
10
314.528
20
-155.848
40
0.500047
50
-89.9946
51
-0.0053853
0
ARC
8
BLACK
10
178.861
20
-135.752
40
0.5
50
-180
51
-90
0
LINE
8
BLACK
6
CONTINUOUS
10
315.471
20
-195.173
11
315.471
21
-192.573
0
LINE
8
BLACK
6
CONTINUOUS
10
78.5652
20
-203.948
11
78.5652
21
-216.948
0
ARC
8
BLACK
10
193.365
20
-203.948
40
0.499953
50
-270.005
51
-179.995
0
ARC
8
BLACK
10
183.84
20
-184.898
40
0.499953
50
-270.005
51
-179.995
0
ARC
8
BLACK
10
51.584
20
-203.948
40
0.499953
50
-0.00538584
51
90.0003
0
LINE
8
BLACK
6
CONTINUOUS
10
134.928
20
-165.348
11
121.928
21
-165.348
0
ARC
8
BLACK
10
268.278
20
-178.848
40
0.500047
50
-89.9946
51
-0.0053853
0
ARC
8
BLACK
10
192.078
20
-178.848
40
0.500047
50
-89.9946
51
-0.0053853
0
LINE
8
BLACK
6
CONTINUOUS
10
210.911
20
-122.252
11
197.911
21
-122.252
0
ARC
8
BLACK
10
153.978
20
-178.848
40
0.500047
50
-89.9946
51
-0.0053853
0
ARC
8
BLACK
10
377.815
20
-235.998
40
0.500047
50
-89.9946
51
-0.0053853
0
ARC
8
BLACK
10
286.578
20
-145.348
40
0.499953
50
-270.005
51
-179.995
0
LINE
8
BLACK
6
CONTINUOUS
10
145.74
20
-198.398
11
158.74
21
-198.398
0
LINE
8
BLACK
6
CONTINUOUS
10
225.415
20
-203.448
11
212.415
21
-203.448
0
LINE
8
BLACK
6
CONTINUOUS
10
83.8277
20
-179.348
11
96.8277
21
-179.348
0
ARC
8
BLACK
10
377.815
20
-178.848
40
0.500047
50
-89.9946
51
-0.0053853
0
ARC
8
BLACK
10
102.878
20
-165.848
40
0.499953
50
-270.005
51
-179.995
0
ARC
8
BLACK
10
364.815
20
-235.998
40
0.500047
50
-179.995
51
-89.9946
0
LINE
8
BLACK
6
CONTINUOUS
10
131.453
20
-160.298
11
144.453
21
-160.298
0
ARC
8
BLACK
10
86.209
20
-222.998
40
0.500003
50
-270
51
-179.995
0
ARC
8
BLACK
10
345.765
20
-165.848
40
0.499953
50
-270.005
51
-179.995
0
LINE
8
BLACK
6
CONTINUOUS
10
102.378
20
-165.848
11
102.378
21
-178.848
0
LINE
8
BLACK
6
CONTINUOUS
10
339.715
20
-165.348
11
326.715
21
-165.348
0
LINE
8
BLACK
6
CONTINUOUS
10
164.29
20
-184.898
11
164.29
21
-197.898
0
LINE
8
BLACK
6
CONTINUOUS
10
64.2777
20
-165.848
11
64.2777
21
-178.848
0
LINE
8
BLACK
6
CONTINUOUS
10
115.878
20
-165.348
11
102.878
21
-165.348
0
ARC
8
BLACK
10
77.7777
20
-178.848
40
0.500047
50
-89.9946
51
-0.0053853
0
LINE
8
BLACK
6
CONTINUOUS
10
88.5902
20
-198.398
11
101.59
21
-198.398
0
ARC
8
BLACK
10
314.971
20
-168.573
40
0.499953
50
-0.00538584
51
90.0003
0
ARC
8
BLACK
10
289.709
20
-222.998
40
0.499953
50
-0.00538584
51
90.0003
0
ARC
8
BLACK
10
74.0863
20
-135.752
40
0.5
50
-180
51
-90
0
LINE
8
BLACK
6
CONTINUOUS
10
144.236
20
-122.252
11
131.236
21
-122.252
0
LINE
8
BLACK
6
CONTINUOUS
10
290.209
20
-235.998
11
290.209
21
-222.998
0
LINE
8
BLACK
6
CONTINUOUS
10
273.828
20
-165.848
11
273.828
21
-178.848
0
ARC
8
BLACK
10
177.79
20
-184.898
40
0.499953
50
-0.0053853
51
89.9946
0
LINE
8
BLACK
6
CONTINUOUS
10
131.236
20
-136.252
11
144.236
21
-136.252
0
ARC
8
BLACK
10
144.236
20
-135.752
40
0.5
50
-90
51
-0
0
LINE
8
BLACK
6
CONTINUOUS
10
87.8027
20
-159.798
11
87.8027
21
-146.798
0
LINE
8
BLACK
6
CONTINUOUS
10
130.953
20
-146.798
11
130.953
21
-159.798
0
ARC
8
BLACK
10
217.178
20
-178.848
40
0.500047
50
-179.995
51
-89.9946
0
ARC
8
BLACK
10
206.365
20
-203.948
40
0.499953
50
-0.0053853
51
89.9946
0
ARC
8
BLACK
10
111.115
20
-216.948
40
0.500047
50
-89.9946
51
-0.0053853
0
LINE
8
BLACK
6
CONTINUOUS
10
116.796
20
-225.698
11
115.946
21
-225.698
0
LINE
8
BLACK
6
CONTINUOUS
10
268.778
20
-178.848
11
268.778
21
-165.848
0
ARC
8
BLACK
10
263.515
20
-203.948
40
0.499953
50
-0.0053853
51
89.9946
0
ARC
8
BLACK
10
292.09
20
-197.898
40
0.500047
50
-89.9946
51
-0.0053853
0
LINE
8
BLACK
6
CONTINUOUS
10
83.3277
20
-165.848
11
83.3277
21
-178.848
0
CIRCLE
8
BLACK
10
368.144
20
-141.277
40
1.3
0
LINE
8
BLACK
6
CONTINUOUS
10
75.8965
20
-235.998
11
75.8965
21
-222.998
0
ARC
8
BLACK
10
112.846
20
-221.548
40
0.500003
50
-270
51
-179.995
0
LINE
8
BLACK
6
CONTINUOUS
10
300.021
20
-222.998
11
300.021
21
-235.998
0
LINE
8
BLACK
6
CONTINUOUS
10
310.078
20
-149.498
11
309.228
21
-149.498
0
LINE
8
BLACK
6
CONTINUOUS
10
289.709
20
-222.498
11
276.709
21
-222.498
0
ARC
8
BLACK
10
183.84
20
-197.898
40
0.500047
50
-179.995
51
-89.9946
0
ARC
8
BLACK
10
304.471
20
-172.523
40
0.500047
50
-179.995
51
-90.0003
0
LINE
8
BLACK
6
CONTINUOUS
10
111.686
20
-122.752
11
111.686
21
-135.752
0
LINE
8
BLACK
6
CONTINUOUS
10
358.765
20
-146.298
11
345.765
21
-146.298
0
ARC
8
BLACK
10
53.9652
20
-178.848
40
0.500047
50
-89.9946
51
-0.0053853
0
ARC
8
BLACK
10
206.365
20
-216.948
40
0.500047
50
-89.9946
51
-0.0053853
0
LINE
8
BLACK
6
CONTINUOUS
10
313.521
20
-174.873
11
300.521
21
-174.873
0
LINE
8
BLACK
6
CONTINUOUS
10
266.396
20
-235.998
11
266.396
21
-222.998
0
ARC
8
BLACK
10
99.209
20
-235.998
40
0.499997
50
-90.0003
51
-0.00538584
0
LINE
8
BLACK
6
CONTINUOUS
10
192.078
20
-165.348
11
179.078
21
-165.348
0
ARC
8
BLACK
10
244.465
20
-203.948
40
0.499953
50
-0.0053853
51
89.9946
0
CIRCLE
8
BLACK
10
51.6688
20
-143.902
40
1.3
0
ARC
8
BLACK
10
358.765
20
-222.998
40
0.499953
50
-0.0053853
51
89.9946
0
LINE
8
BLACK
6
CONTINUOUS
10
115.946
20
-225.698
11
115.946
21
-221.548
0
LINE
8
BLACK
6
CONTINUOUS
10
59.5152
20
-203.948
11
59.5152
21
-216.948
0
LINE
8
BLACK
6
CONTINUOUS
10
112.346
20
-225.698
11
111.496
21
-225.698
0
LINE
8
BLACK
6
CONTINUOUS
10
358.765
20
-165.348
11
345.765
21
-165.348
0
LINE
8
BLACK
6
CONTINUOUS
10
268.278
20
-165.348
11
255.278
21
-165.348
0
LINE
8
BLACK
6
CONTINUOUS
10
191.861
20
-122.252
11
178.861
21
-122.252
0
LINE
8
BLACK
6
CONTINUOUS
10
217.296
20
-232.048
11
217.296
21
-226.198
0
LINE
8
BLACK
6
CONTINUOUS
10
303.971
20
-167.223
11
303.971
21
-172.523
0
LINE
8
BLACK
6
CONTINUOUS
10
192.578
20
-178.848
11
192.578
21
-165.848
0
LINE
8
BLACK
6
CONTINUOUS
10
135.715
20
-203.948
11
135.715
21
-216.948
0
LINE
8
BLACK
6
CONTINUOUS
10
92.0652
20
-203.448
11
79.0652
21
-203.448
0
LINE
8
BLACK
6
CONTINUOUS
10
125.686
20
-135.752
11
125.686
21
-122.752
0
ARC
8
BLACK
10
358.765
20
-216.948
40
0.500047
50
-89.9946
51
-0.0053853
0
LINE
8
BLACK
6
CONTINUOUS
10
56.3465
20
-184.398
11
43.3465
21
-184.398
0
LINE
8
BLACK
6
CONTINUOUS
10
174.315
20
-217.448
11
187.315
21
-217.448
0
ARC
8
BLACK
10
339.715
20
-165.848
40
0.499953
50
-0.0053853
51
89.9946
0
ARC
8
BLACK
10
345.765
20
-178.848
40
0.500047
50
-179.995
51
-89.9946
0
LINE
8
BLACK
6
CONTINUOUS
10
157.646
20
-236.498
11
170.646
21
-236.498
0
ARC
8
BLACK
10
82.5402
20
-184.898
40
0.499953
50
-0.0053853
51
89.9946
0
ARC
8
BLACK
10
87.0863
20
-135.752
40
0.5
50
-90
51
-0
0
ARC
8
BLACK
10
307.384
20
-212.998
40
0.499997
50
-90.0003
51
-0.00538584
0
LINE
8
BLACK
6
CONTINUOUS
10
111.115
20
-203.448
11
98.1152
21
-203.448
0
LINE
8
BLACK
6
CONTINUOUS
10
159.528
20
-165.848
11
159.528
21
-178.848
0
ARC
8
BLACK
10
197.911
20
-135.752
40
0.5
50
-180
51
-90
0
LINE
8
BLACK
6
CONTINUOUS
10
211.496
20
-232.548
11
216.796
21
-232.548
0
LINE
8
BLACK
6
CONTINUOUS
10
150.503
20
-160.298
11
163.503
21
-160.298
0
ARC
8
BLACK
10
310.321
20
-167.223
40
0.499953
50
-0.00538584
51
90.0003
0
LINE
8
BLACK
6
CONTINUOUS
10
283.636
20
-136.252
11
296.636
21
-136.252
0
ARC
8
BLACK
10
192.078
20
-165.848
40
0.499953
50
-0.0053853
51
89.9946
0
LINE
8
BLACK
6
CONTINUOUS
10
259.036
20
-135.752
11
259.036
21
-122.752
0
ARC
8
BLACK
10
93.1363
20
-122.752
40
0.5
50
90
51
180
0
ARC
8
BLACK
10
157.647
20
-222.998
40
0.500003
50
-270
51
-179.995
0
LINE
8
BLACK
6
CONTINUOUS
10
284.728
20
-149.998
11
284.728
21
-155.848
0
LINE
8
BLACK
6
CONTINUOUS
10
326.715
20
-179.348
11
339.715
21
-179.348
0
ARC
8
BLACK
10
300.522
20
-175.373
40
0.500003
50
-270
51
-179.995
0
LINE
8
BLACK
6
CONTINUOUS
10
300.521
20
-236.498
11
313.521
21
-236.498
0
LINE
8
BLACK
6
CONTINUOUS
10
377.815
20
-146.298
11
364.815
21
-146.298
0
ARC
8
BLACK
10
51.584
20
-222.998
40
0.499953
50
-0.00538584
51
90.0003
0
LINE
8
BLACK
6
CONTINUOUS
10
82.5402
20
-184.398
11
69.5402
21
-184.398
0
ARC
8
BLACK
10
60.0152
20
-216.948
40
0.500047
50
-179.995
51
-89.9946
0
LINE
8
BLACK
6
CONTINUOUS
10
159.24
20
-197.898
11
159.24
21
-184.898
0
ARC
8
BLACK
10
286.234
20
-203.948
40
0.500003
50
-270
51
-179.995
0
ARC
8
BLACK
10
38.584
20
-203.948
40
0.500003
50
-270
51
-179.995
0
LINE
8
BLACK
6
CONTINUOUS
10
282.534
20
-206.648
11
282.534
21
-202.498
0
LINE
8
BLACK
6
CONTINUOUS
10
38.084
20
-203.948
11
38.084
21
-216.948
0
LINE
8
BLACK
6
CONTINUOUS
10
173.028
20
-165.348
11
160.028
21
-165.348
0
LINE
8
BLACK
6
CONTINUOUS
10
345.265
20
-222.998
11
345.265
21
-235.998
0
ARC
8
BLACK
10
210.911
20
-135.752
40
0.5
50
-90
51
-0
0
LINE
8
BLACK
6
CONTINUOUS
10
221.44
20
-184.898
11
221.44
21
-197.898
0
ARC
8
BLACK
10
38.584
20
-216.948
40
0.500047
50
-179.995
51
-90.0003
0
LINE
8
BLACK
6
CONTINUOUS
10
240.203
20
-159.798
11
240.203
21
-146.798
0
ARC
8
BLACK
10
255.278
20
-165.848
40
0.499953
50
-270.005
51
-179.995
0
ARC
8
BLACK
10
245.753
20
-159.798
40
0.500047
50
-179.995
51
-89.9946
0
LINE
8
BLACK
6
CONTINUOUS
10
135.428
20
-178.848
11
135.428
21
-165.848
0
LINE
8
BLACK
6
CONTINUOUS
10
79.0652
20
-217.448
11
92.0652
21
-217.448
0
LINE
8
BLACK
6
CONTINUOUS
10
86.209
20
-236.498
11
99.209
21
-236.498
0
LINE
8
BLACK
6
CONTINUOUS
10
211.128
20
-165.348
11
198.128
21
-165.348
0
LINE
8
BLACK
6
CONTINUOUS
10
116.665
20
-203.948
11
116.665
21
-216.948
0
LINE
8
BLACK
6
CONTINUOUS
10
377.815
20
-165.348
11
364.815
21
-165.348
0
ARC
8
BLACK
10
300.522
20
-235.998
40
0.500047
50
-179.995
51
-90.0003
0
LINE
8
BLACK
6
CONTINUOUS
10
160.028
20
-179.348
11
173.028
21
-179.348
0
LINE
8
BLACK
6
CONTINUOUS
10
364.815
20
-160.298
11
377.815
21
-160.298
0
ARC
8
BLACK
10
313.522
20
-235.998
40
0.499997
50
-90.0003
51
-0.00538584
0
LINE
8
BLACK
6
CONTINUOUS
10
35.7027
20
-146.798
11
35.7027
21
-159.798
0
LINE
8
BLACK
6
CONTINUOUS
10
339.499
20
-122.252
11
326.499
21
-122.252
0
LINE
8
BLACK
6
CONTINUOUS
10
116.378
20
-178.848
11
116.378
21
-165.848
0
ARC
8
BLACK
10
253.99
20
-197.898
40
0.500047
50
-89.9946
51
-0.0053853
0
ARC
8
BLACK
10
136.215
20
-216.948
40
0.500047
50
-179.995
51
-89.9946
0
LINE
8
BLACK
6
CONTINUOUS
10
300.521
20
-188.873
11
313.521
21
-188.873
0
ARC
8
BLACK
10
153.978
20
-165.848
40
0.499953
50
-0.0053853
51
89.9946
0
LINE
8
BLACK
6
CONTINUOUS
10
229.084
20
-236.498
11
242.084
21
-236.498
0
ARC
8
BLACK
10
56.3465
20
-197.898
40
0.499997
50
-90.0003
51
-0.00538584
0
LINE
8
BLACK
6
CONTINUOUS
10
274.328
20
-179.348
11
287.328
21
-179.348
0
LINE
8
BLACK
6
CONTINUOUS
10
230.965
20
-203.948
11
230.965
21
-216.948
0
LINE
8
BLACK
6
CONTINUOUS
10
178.361
20
-122.752
11
178.361
21
-135.752
0
ARC
8
BLACK
10
38.584
20
-235.998
40
0.500047
50
-179.995
51
-90.0003
0
LINE
8
BLACK
6
CONTINUOUS
10
249.728
20
-178.848
11
249.728
21
-165.848
0
ARC
8
BLACK
10
82.5402
20
-197.898
40
0.500047
50
-89.9946
51
-0.0053853
0
LINE
8
BLACK
6
CONTINUOUS
10
234.94
20
-184.398
11
221.94
21
-184.398
0
LINE
8
BLACK
6
CONTINUOUS
10
172.811
20
-122.252
11
159.811
21
-122.252
0
ARC
8
BLACK
10
299.234
20
-216.948
40
0.499997
50
-90.0003
51
-0.00538584
0
ARC
8
BLACK
10
245.536
20
-122.752
40
0.5
50
90
51
180
0
ARC
8
BLACK
10
220.653
20
-146.798
40
0.499953
50
-0.0053853
51
89.9946
0
ARC
8
BLACK
10
339.499
20
-135.752
40
0.5
50
-90
51
-0
0
ARC
8
BLACK
10
106.353
20
-146.798
40
0.499953
50
-0.0053853
51
89.9946
0
LINE
8
BLACK
6
CONTINUOUS
10
188.603
20
-160.298
11
201.603
21
-160.298
0
ARC
8
BLACK
10
326.499
20
-122.752
40
0.5
50
90
51
180
0
LINE
8
BLACK
6
CONTINUOUS
10
112.186
20
-136.252
11
125.186
21
-136.252
0
ARC
8
BLACK
10
92.0652
20
-216.948
40
0.500047
50
-89.9946
51
-0.0053853
0
ARC
8
BLACK
10
345.765
20
-203.948
40
0.499953
50
-270.005
51
-179.995
0
LINE
8
BLACK
6
CONTINUOUS
10
339.999
20
-135.752
11
339.999
21
-122.752
0
ARC
8
BLACK
10
345.549
20
-122.752
40
0.5
50
90
51
180
0
LINE
8
BLACK
6
CONTINUOUS
10
193.365
20
-217.448
11
206.365
21
-217.448
0
LINE
8
BLACK
6
CONTINUOUS
10
73.5152
20
-216.948
11
73.5152
21
-203.948
0
ARC
8
BLACK
10
358.765
20
-203.948
40
0.499953
50
-0.0053853
51
89.9946
0
ARC
8
BLACK
10
74.3027
20
-159.798
40
0.500047
50
-179.995
51
-89.9946
0
LINE
8
BLACK
6
CONTINUOUS
10
207.653
20
-160.298
11
220.653
21
-160.298
0
LINE
8
BLACK
6
CONTINUOUS
10
296.636
20
-122.252
11
283.636
21
-122.252
0
LINE
8
BLACK
6
CONTINUOUS
10
169.053
20
-146.798
11
169.053
21
-159.798
0
LINE
8
BLACK
6
CONTINUOUS
10
302.186
20
-122.752
11
302.186
21
-135.752
0
LINE
8
BLACK
6
CONTINUOUS
10
301.584
20
-207.148
11
301.584
21
-212.998
0
ARC
8
BLACK
10
196.84
20
-197.898
40
0.500047
50
-89.9946
51
-0.0053853
0
LINE
8
BLACK
6
CONTINUOUS
10
289.678
20
-149.498
11
289.678
21
-145.348
0
LINE
8
BLACK
6
CONTINUOUS
10
42.8465
20
-184.898
11
42.8465
21
-197.898
0
LINE
8
BLACK
6
CONTINUOUS
10
273.04
20
-184.398
11
260.04
21
-184.398
0
LINE
8
BLACK
6
CONTINUOUS
10
242.584
20
-235.998
11
242.584
21
-222.998
0
ARC
8
BLACK
10
226.703
20
-159.798
40
0.500047
50
-179.995
51
-89.9946
0
ARC
8
BLACK
10
358.549
20
-135.752
40
0.5
50
-90
51
-0
0
LINE
8
BLACK
6
CONTINUOUS
10
302.686
20
-136.252
11
315.686
21
-136.252
0
LINE
8
BLACK
6
CONTINUOUS
10
225.915
20
-216.948
11
225.915
21
-203.948
0
LINE
8
BLACK
6
CONTINUOUS
10
250.015
20
-203.948
11
250.015
21
-216.948
0
LINE
8
BLACK
6
CONTINUOUS
10
85.709
20
-222.998
11
85.709
21
-235.998
0
ARC
8
BLACK
10
211.128
20
-165.848
40
0.499953
50
-0.0053853
51
89.9946
0
LINE
8
BLACK
6
CONTINUOUS
10
244.965
20
-216.948
11
244.965
21
-203.948
0
LINE
8
BLACK
6
CONTINUOUS
10
168.265
20
-203.448
11
155.265
21
-203.448
0
ARC
8
BLACK
10
314.971
20
-171.173
40
0.499997
50
-90.0003
51
-0.00538584
0
LINE
8
BLACK
6
CONTINUOUS
10
220.653
20
-146.298
11
207.653
21
-146.298
0
ARC
8
BLACK
10
276.709
20
-235.998
40
0.500047
50
-179.995
51
-90.0003
0
LINE
8
BLACK
6
CONTINUOUS
10
69.0402
20
-184.898
11
69.0402
21
-197.898
0
ARC
8
BLACK
10
339.715
20
-235.998
40
0.500047
50
-89.9946
51
-0.0053853
0
LINE
8
BLACK
6
CONTINUOUS
10
188.103
20
-146.798
11
188.103
21
-159.798
0
ARC
8
BLACK
10
134.928
20
-165.848
40
0.499953
50
-0.0053853
51
89.9946
0
LINE
8
BLACK
6
CONTINUOUS
10
117.165
20
-217.448
11
130.165
21
-217.448
0
ARC
8
BLACK
10
345.765
20
-159.798
40
0.500047
50
-179.995
51
-89.9946
0
LINE
8
BLACK
6
CONTINUOUS
10
211.628
20
-178.848
11
211.628
21
-165.848
0
LINE
8
BLACK
6
CONTINUOUS
10
264.015
20
-216.948
11
264.015
21
-203.948
0
ARC
8
BLACK
10
215.446
20
-221.548
40
0.499953
50
-0.00538584
51
90.0003
0
LINE
8
BLACK
6
CONTINUOUS
10
292.878
20
-146.798
11
292.878
21
-159.798
0
ARC
8
BLACK
10
179.078
20
-165.848
40
0.499953
50
-270.005
51
-179.995
0
ARC
8
BLACK
10
150.503
20
-159.798
40
0.500047
50
-179.995
51
-89.9946
0
ARC
8
BLACK
10
313.522
20
-188.373
40
0.499997
50
-90.0003
51
-0.00538584
0
ARC
8
BLACK
10
216.796
20
-232.048
40
0.499997
50
-90.0003
51
-0.00538584
0
ARC
8
BLACK
10
60.0152
20
-203.948
40
0.499953
50
-270.005
51
-179.995
0
ARC
8
BLACK
10
240.99
20
-184.898
40
0.499953
50
-270.005
51
-179.995
0
LINE
8
BLACK
6
CONTINUOUS
10
250.515
20
-217.448
11
263.515
21
-217.448
0
ARC
8
BLACK
10
178.861
20
-122.752
40
0.5
50
90
51
180
0
ARC
8
BLACK
10
201.603
20
-146.798
40
0.499953
50
-0.0053853
51
89.9946
0
LINE
8
BLACK
6
CONTINUOUS
10
283.384
20
-206.648
11
282.534
21
-206.648
0
LINE
8
BLACK
6
CONTINUOUS
10
310.821
20
-172.523
11
310.821
21
-171.673
0
ARC
8
BLACK
10
107.64
20
-197.898
40
0.500047
50
-179.995
51
-89.9946
0
LINE
8
BLACK
6
CONTINUOUS
10
378.315
20
-178.848
11
378.315
21
-165.848
0
LINE
8
BLACK
6
CONTINUOUS
10
221.153
20
-159.798
11
221.153
21
-146.798
0
ARC
8
BLACK
10
273.04
20
-197.898
40
0.500047
50
-89.9946
51
-0.0053853
0
LINE
8
BLACK
6
CONTINUOUS
10
310.821
20
-192.073
11
310.821
21
-191.223
0
ARC
8
BLACK
10
229.961
20
-122.752
40
0.5
50
-0
51
90
0
ARC
8
BLACK
10
229.961
20
-135.752
40
0.5
50
-90
51
-0
0
LINE
8
BLACK
6
CONTINUOUS
10
93.3527
20
-160.298
11
106.353
21
-160.298
0
LINE
8
BLACK
6
CONTINUOUS
10
52.084
20
-216.948
11
52.084
21
-203.948
0
LINE
8
BLACK
6
CONTINUOUS
10
302.934
20
-206.648
11
302.084
21
-206.648
0
ARC
8
BLACK
10
289.178
20
-145.348
40
0.499953
50
-0.0053853
51
89.9946
0
ARC
8
BLACK
10
160.028
20
-178.848
40
0.500047
50
-179.995
51
-89.9946
0
LINE
8
BLACK
6
CONTINUOUS
10
258.536
20
-122.252
11
245.536
21
-122.252
0
ARC
8
BLACK
10
310.321
20
-172.523
40
0.499997
50
-90.0003
51
-0.00538584
0
ARC
8
BLACK
10
131.453
20
-159.798
40
0.500047
50
-179.995
51
-89.9946
0
ARC
8
BLACK
10
253.99
20
-184.898
40
0.499953
50
-0.0053853
51
89.9946
0
LINE
8
BLACK
6
CONTINUOUS
10
291.028
20
-155.848
11
291.028
21
-149.998
0
ARC
8
BLACK
10
53.9652
20
-165.848
40
0.499953
50
-0.0053853
51
89.9946
0
LINE
8
BLACK
6
CONTINUOUS
10
111.615
20
-216.948
11
111.615
21
-203.948
0
LINE
8
BLACK
6
CONTINUOUS
10
125.903
20
-159.798
11
125.903
21
-146.798
0
LINE
8
BLACK
6
CONTINUOUS
10
216.796
20
-225.698
11
215.946
21
-225.698
0
LINE
8
BLACK
6
CONTINUOUS
10
287.328
20
-165.348
11
274.328
21
-165.348
0
ARC
8
BLACK
10
264.803
20
-146.798
40
0.499953
50
-270.005
51
-179.995
0
LINE
8
BLACK
6
CONTINUOUS
10
377.815
20
-222.498
11
364.815
21
-222.498
0
LINE
8
BLACK
6
CONTINUOUS
10
302.084
20
-213.498
11
307.384
21
-213.498
0
ARC
8
BLACK
10
309.228
20
-149.998
40
0.499953
50
-270.005
51
-179.995
0
LINE
8
BLACK
6
CONTINUOUS
10
264.803
20
-160.298
11
277.803
21
-160.298
0
ARC
8
BLACK
10
169.553
20
-146.798
40
0.499953
50
-270.005
51
-179.995
0
LINE
8
BLACK
6
CONTINUOUS
10
178.861
20
-136.252
11
191.861
21
-136.252
0
LINE
8
BLACK
6
CONTINUOUS
10
278.59
20
-184.898
11
278.59
21
-197.898
0
LINE
8
BLACK
6
CONTINUOUS
10
235.728
20
-165.848
11
235.728
21
-178.848
0
ARC
8
BLACK
10
326.715
20
-235.998
40
0.500047
50
-179.995
51
-89.9946
0
LINE
8
BLACK
6
CONTINUOUS
10
49.7027
20
-159.798
11
49.7027
21
-146.798
0
ARC
8
BLACK
10
277.803
20
-146.798
40
0.499953
50
-0.0053853
51
89.9946
0
LINE
8
BLACK
6
CONTINUOUS
10
345.265
20
-165.848
11
345.265
21
-178.848
0
ARC
8
BLACK
10
283.636
20
-122.752
40
0.5
50
90
51
180
0
LINE
8
BLACK
6
CONTINUOUS
10
210.996
20
-226.198
11
210.996
21
-232.048
0
LINE
8
BLACK
6
CONTINUOUS
10
155.265
20
-217.448
11
168.265
21
-217.448
0
ARC
8
BLACK
10
35.9863
20
-122.752
40
0.5
50
90
51
180
0
LINE
8
BLACK
6
CONTINUOUS
10
313.678
20
-149.498
11
313.678
21
-145.348
0
LINE
8
BLACK
6
CONTINUOUS
10
245.036
20
-122.752
11
245.036
21
-135.752
0
ARC
8
BLACK
10
131.236
20
-135.752
40
0.5
50
-180
51
-90
0
ARC
8
BLACK
10
239.703
20
-159.798
40
0.500047
50
-89.9946
51
-0.0053853
0
LINE
8
BLACK
6
CONTINUOUS
10
177.79
20
-184.398
11
164.79
21
-184.398
0
ARC
8
BLACK
10
364.599
20
-122.752
40
0.5
50
90
51
180
0
LINE
8
BLACK
6
CONTINUOUS
10
149.215
20
-203.448
11
136.215
21
-203.448
0
LINE
8
BLACK
6
CONTINUOUS
10
111.496
20
-232.548
11
116.796
21
-232.548
0
LINE
8
BLACK
6
CONTINUOUS
10
364.315
20
-222.998
11
364.315
21
-235.998
0
ARC
8
BLACK
10
358.765
20
-159.798
40
0.500047
50
-89.9946
51
-0.0053853
0
ARC
8
BLACK
10
279.434
20
-202.498
40
0.500003
50
-270
51
-179.995
0
ARC
8
BLACK
10
106.353
20
-159.798
40
0.500047
50
-89.9946
51
-0.0053853
0
LINE
8
BLACK
6
CONTINUOUS
10
242.084
20
-222.498
11
229.084
21
-222.498
0
LINE
8
BLACK
6
CONTINUOUS
10
140.978
20
-179.348
11
153.978
21
-179.348
0
ARC
8
BLACK
10
116.796
20
-232.048
40
0.499997
50
-90.0003
51
-0.00538584
0
LINE
8
BLACK
6
CONTINUOUS
10
310.821
20
-168.073
11
310.821
21
-167.223
0
ARC
8
BLACK
10
277.586
20
-135.752
40
0.5
50
-90
51
-0
0
LINE
8
BLACK
6
CONTINUOUS
10
277.584
20
-207.148
11
277.584
21
-212.998
0
LINE
8
BLACK
6
CONTINUOUS
10
364.815
20
-236.498
11
377.815
21
-236.498
0
ARC
8
BLACK
10
150.503
20
-146.798
40
0.499953
50
-270.005
51
-179.995
0
LINE
8
BLACK
6
CONTINUOUS
10
110.996
20
-226.198
11
110.996
21
-232.048
0
LINE
8
BLACK
6
CONTINUOUS
10
314.021
20
-235.998
11
314.021
21
-222.998
0
ARC
8
BLACK
10
193.365
20
-216.948
40
0.500047
50
-179.995
51
-89.9946
0
LINE
8
BLACK
6
CONTINUOUS
10
51.584
20
-203.448
11
38.584
21
-203.448
0
ARC
8
BLACK
10
112.403
20
-146.798
40
0.499953
50
-270.005
51
-179.995
0
ARC
8
BLACK
10
51.584
20
-216.948
40
0.499997
50
-90.0003
51
-0.00538584
0
ARC
8
BLACK
10
93.3527
20
-146.798
40
0.499953
50
-270.005
51
-179.995
0
ARC
8
BLACK
10
231.465
20
-216.948
40
0.500047
50
-179.995
51
-89.9946
0
LINE
8
BLACK
6
CONTINUOUS
10
230.178
20
-165.348
11
217.178
21
-165.348
0
LINE
8
BLACK
6
CONTINUOUS
10
339.715
20
-146.298
11
326.715
21
-146.298
0
LINE
8
BLACK
6
CONTINUOUS
10
126.69
20
-198.398
11
139.69
21
-198.398
0
LINE
8
BLACK
6
CONTINUOUS
10
286.078
20
-145.348
11
286.078
21
-149.498
0
ARC
8
BLACK
10
249.228
20
-178.848
40
0.500047
50
-89.9946
51
-0.0053853
0
LINE
8
BLACK
6
CONTINUOUS
10
306.378
20
-146.298
11
293.378
21
-146.298
0
ARC
8
BLACK
10
139.69
20
-184.898
40
0.499953
50
-0.0053853
51
89.9946
0
LINE
8
BLACK
6
CONTINUOUS
10
49.4863
20
-135.752
11
49.4863
21
-122.752
0
ARC
8
BLACK
10
277.803
20
-159.798
40
0.500047
50
-89.9946
51
-0.0053853
0
ARC
8
BLACK
10
283.384
20
-207.148
40
0.499953
50
-0.00538584
51
90.0003
0
ARC
8
BLACK
10
345.549
20
-135.752
40
0.5
50
-180
51
-90
0
LINE
8
BLACK
6
CONTINUOUS
10
259.54
20
-184.898
11
259.54
21
-197.898
0
ARC
8
BLACK
10
102.878
20
-178.848
40
0.500047
50
-179.995
51
-89.9946
0
LINE
8
BLACK
6
CONTINUOUS
10
144.453
20
-146.298
11
131.453
21
-146.298
0
ARC
8
BLACK
10
265.897
20
-222.998
40
0.499953
50
-0.00538584
51
90.0003
0
ARC
8
BLACK
10
98.1152
20
-203.948
40
0.499953
50
-270.005
51
-179.995
0
LINE
8
BLACK
6
CONTINUOUS
10
159.311
20
-122.752
11
159.311
21
-135.752
0
LINE
8
BLACK
6
CONTINUOUS
10
140.478
20
-165.848
11
140.478
21
-178.848
0
CIRCLE
8
BLACK
10
228.419
20
-219.402
40
1.3
0
LINE
8
BLACK
6
CONTINUOUS
10
69.5402
20
-198.398
11
82.5402
21
-198.398
0
LINE
8
BLACK
6
CONTINUOUS
10
345.765
20
-160.298
11
358.765
21
-160.298
0
ARC
8
BLACK
10
202.89
20
-184.898
40
0.499953
50
-270.005
51
-179.995
0
ARC
8
BLACK
10
300.522
20
-188.373
40
0.500047
50
-179.995
51
-90.0003
0
LINE
8
BLACK
6
CONTINUOUS
10
244.465
20
-203.448
11
231.465
21
-203.448
0
ARC
8
BLACK
10
172.811
20
-122.752
40
0.5
50
-0
51
90
0
LINE
8
BLACK
6
CONTINUOUS
10
314.528
20
-149.498
11
313.678
21
-149.498
0
LINE
8
BLACK
6
CONTINUOUS
10
283.136
20
-122.752
11
283.136
21
-135.752
0
ARC
8
BLACK
10
163.503
20
-146.798
40
0.499953
50
-0.0053853
51
89.9946
0
LINE
8
BLACK
6
CONTINUOUS
10
286.078
20
-149.498
11
285.228
21
-149.498
0
LINE
8
BLACK
6
CONTINUOUS
10
121.14
20
-197.898
11
121.14
21
-184.898
0
LINE
8
BLACK
6
CONTINUOUS
10
121.428
20
-165.848
11
121.428
21
-178.848
0
LINE
8
BLACK
6
CONTINUOUS
10
140.19
20
-197.898
11
140.19
21
-184.898
0
ARC
8
BLACK
10
364.815
20
-146.798
40
0.499953
50
-270.005
51
-179.995
0
LINE
8
BLACK
6
CONTINUOUS
10
313.521
20
-222.498
11
300.521
21
-222.498
0
LINE
8
BLACK
6
CONTINUOUS
10
48.9863
20
-122.252
11
35.9863
21
-122.252
0
ARC
8
BLACK
10
79.0652
20
-216.948
40
0.500047
50
-179.995
51
-89.9946
0
ARC
8
BLACK
10
345.765
20
-222.998
40
0.499953
50
-270.005
51
-179.995
0
ARC
8
BLACK
10
236.228
20
-178.848
40
0.500047
50
-179.995
51
-89.9946
0
LINE
8
BLACK
6
CONTINUOUS
10
364.599
20
-136.252
11
377.599
21
-136.252
0
ARC
8
BLACK
10
169.553
20
-159.798
40
0.500047
50
-179.995
51
-89.9946
0
LINE
8
BLACK
6
CONTINUOUS
10
107.64
20
-198.398
11
120.64
21
-198.398
0
LINE
8
BLACK
6
CONTINUOUS
10
36.2027
20
-160.298
11
49.2027
21
-160.298
0
ARC
8
BLACK
10
101.59
20
-197.898
40
0.500047
50
-89.9946
51
-0.0053853
0
ARC
8
BLACK
10
93.1363
20
-135.752
40
0.5
50
-180
51
-90
0
LINE
8
BLACK
6
CONTINUOUS
10
87.5863
20
-135.752
11
87.5863
21
-122.752
0
ARC
8
BLACK
10
210.911
20
-122.752
40
0.5
50
-0
51
90
0
LINE
8
BLACK
6
CONTINUOUS
10
315.471
20
-171.173
11
315.471
21
-168.573
0
ARC
8
BLACK
10
339.715
20
-159.798
40
0.500047
50
-89.9946
51
-0.0053853
0
LINE
8
BLACK
6
CONTINUOUS
10
92.6363
20
-122.752
11
92.6363
21
-135.752
0
LINE
8
BLACK
6
CONTINUOUS
10
309.228
20
-156.348
11
314.528
21
-156.348
0
ARC
8
BLACK
10
221.94
20
-184.898
40
0.499953
50
-270.005
51
-179.995
0
LINE
8
BLACK
6
CONTINUOUS
10
216.961
20
-136.252
11
229.961
21
-136.252
0
ARC
8
BLACK
10
264.803
20
-159.798
40
0.500047
50
-179.995
51
-89.9946
0
ARC
8
BLACK
10
145.74
20
-184.898
40
0.499953
50
-270.005
51
-179.995
0
LINE
8
BLACK
6
CONTINUOUS
10
153.978
20
-165.348
11
140.978
21
-165.348
0
ARC
8
BLACK
10
73.0152
20
-216.948
40
0.500047
50
-89.9946
51
-0.0053853
0
LINE
8
BLACK
6
CONTINUOUS
10
240.99
20
-198.398
11
253.99
21
-198.398
0
ARC
8
BLACK
10
255.278
20
-178.848
40
0.500047
50
-179.995
51
-89.9946
0
ARC
8
BLACK
10
173.028
20
-178.848
40
0.500047
50
-89.9946
51
-0.0053853
0
LINE
8
BLACK
6
CONTINUOUS
10
130.665
20
-216.948
11
130.665
21
-203.948
0
ARC
8
BLACK
10
134.928
20
-178.848
40
0.500047
50
-89.9946
51
-0.0053853
0
LINE
8
BLACK
6
CONTINUOUS
10
111.903
20
-146.798
11
111.903
21
-159.798
0
ARC
8
BLACK
10
287.328
20
-165.848
40
0.499953
50
-0.0053853
51
89.9946
0
ARC
8
BLACK
10
364.815
20
-165.848
40
0.499953
50
-270.005
51
-179.995
0
ARC
8
BLACK
10
260.04
20
-184.898
40
0.499953
50
-270.005
51
-179.995
0
LINE
8
BLACK
6
CONTINUOUS
10
308.728
20
-149.998
11
308.728
21
-155.848
0
LINE
8
BLACK
6
CONTINUOUS
10
38.584
20
-217.448
11
51.584
21
-217.448
0
LINE
8
BLACK
6
CONTINUOUS
10
221.94
20
-198.398
11
234.94
21
-198.398
0
LINE
8
BLACK
6
CONTINUOUS
10
345.049
20
-122.752
11
345.049
21
-135.752
0
LINE
8
BLACK
6
CONTINUOUS
10
253.99
20
-184.398
11
240.99
21
-184.398
0
ARC
8
BLACK
10
309.228
20
-155.848
40
0.500047
50
-179.995
51
-89.9946
0
LINE
8
BLACK
6
CONTINUOUS
10
310.821
20
-195.673
11
314.971
21
-195.673
0
LINE
8
BLACK
6
CONTINUOUS
10
92.8527
20
-146.798
11
92.8527
21
-159.798
0
ARC
8
BLACK
10
130.165
20
-203.948
40
0.499953
50
-0.0053853
51
89.9946
0
ARC
8
BLACK
10
117.165
20
-216.948
40
0.500047
50
-179.995
51
-89.9946
0
LINE
8
BLACK
6
CONTINUOUS
10
297.136
20
-135.752
11
297.136
21
-122.752
0
ARC
8
BLACK
10
258.536
20
-122.752
40
0.5
50
-0
51
90
0
LINE
8
BLACK
6
CONTINUOUS
10
310.321
20
-166.723
11
304.471
21
-166.723
0
ARC
8
BLACK
10
115.447
20
-221.548
40
0.499953
50
-0.00538584
51
90.0003
0
LINE
8
BLACK
6
CONTINUOUS
10
263.515
20
-203.448
11
250.515
21
-203.448
0
LINE
8
BLACK
6
CONTINUOUS
10
115.446
20
-221.048
11
112.846
21
-221.048
0
ARC
8
BLACK
10
48.9863
20
-122.752
40
0.5
50
-0
51
90
0
LINE
8
BLACK
6
CONTINUOUS
10
211.915
20
-203.948
11
211.915
21
-216.948
0
ARC
8
BLACK
10
306.034
20
-202.498
40
0.499953
50
-0.00538584
51
90.0003
0
ARC
8
BLACK
10
77.7777
20
-165.848
40
0.499953
50
-0.0053853
51
89.9946
0
ARC
8
BLACK
10
56.3465
20
-184.898
40
0.499953
50
-0.00538584
51
90.0003
0
ARC
8
BLACK
10
307.384
20
-207.148
40
0.499953
50
-0.00538584
51
90.0003
0
LINE
8
BLACK
6
CONTINUOUS
10
197.411
20
-122.752
11
197.411
21
-135.752
0
LINE
8
BLACK
6
CONTINUOUS
10
326.499
20
-136.252
11
339.499
21
-136.252
0
ARC
8
BLACK
10
75.3965
20
-222.998
40
0.499953
50
-0.00538584
51
90.0003
0
LINE
8
BLACK
6
CONTINUOUS
10
313.178
20
-144.848
11
310.578
21
-144.848
0
LINE
8
BLACK
6
CONTINUOUS
10
359.265
20
-159.798
11
359.265
21
-146.798
0
LINE
8
BLACK
6
CONTINUOUS
10
285.734
20
-203.948
11
285.734
21
-216.948
0
LINE
8
BLACK
6
CONTINUOUS
10
121.928
20
-179.348
11
134.928
21
-179.348
0
LINE
8
BLACK
6
CONTINUOUS
10
326.215
20
-146.798
11
326.215
21
-159.798
0
LINE
8
BLACK
6
CONTINUOUS
10
106.353
20
-146.298
11
93.3527
21
-146.298
0
LINE
8
BLACK
6
CONTINUOUS
10
264.303
20
-146.798
11
264.303
21
-159.798
0
ARC
8
BLACK
10
239.703
20
-146.798
40
0.499953
50
-0.0053853
51
89.9946
0
ARC
8
BLACK
10
191.861
20
-122.752
40
0.5
50
-0
51
90
0
LINE
8
BLACK
6
CONTINUOUS
10
96.8277
20
-165.348
11
83.8277
21
-165.348
0
ARC
8
BLACK
10
314.528
20
-149.998
40
0.499953
50
-0.0053853
51
89.9946
0
ARC
8
BLACK
10
315.686
20
-122.752
40
0.5
50
-0
51
90
0
LINE
8
BLACK
6
CONTINUOUS
10
168.765
20
-216.948
11
168.765
21
-203.948
0
ARC
8
BLACK
10
111.115
20
-203.948
40
0.499953
50
-0.0053853
51
89.9946
0
LINE
8
BLACK
6
CONTINUOUS
10
364.099
20
-122.752
11
364.099
21
-135.752
0
ARC
8
BLACK
10
314.971
20
-195.173
40
0.499997
50
-90.0003
51
-0.00538584
0
ARC
8
BLACK
10
182.553
20
-146.798
40
0.499953
50
-0.0053853
51
89.9946
0
ARC
8
BLACK
10
172.811
20
-135.752
40
0.5
50
-90
51
-0
0
ARC
8
BLACK
10
252.896
20
-222.998
40
0.500003
50
-270
51
-179.995
0
ARC
8
BLACK
10
139.69
20
-197.898
40
0.500047
50
-89.9946
51
-0.0053853
0
LINE
8
BLACK
6
CONTINUOUS
10
183.053
20
-159.798
11
183.053
21
-146.798
0
LINE
8
BLACK
6
CONTINUOUS
10
92.5652
20
-216.948
11
92.5652
21
-203.948
0
ARC
8
BLACK
10
377.815
20
-222.998
40
0.499953
50
-0.0053853
51
89.9946
0
ARC
8
BLACK
10
144.453
20
-146.798
40
0.499953
50
-0.0053853
51
89.9946
0
LINE
8
BLACK
6
CONTINUOUS
10
326.215
20
-165.848
11
326.215
21
-178.848
0
ARC
8
BLACK
10
304.471
20
-191.223
40
0.500003
50
-270
51
-179.995
0
ARC
8
BLACK
10
49.2027
20
-159.798
40
0.500047
50
-89.9946
51
-0.0053853
0
ARC
8
BLACK
10
283.636
20
-135.752
40
0.5
50
-180
51
-90
0
ARC
8
BLACK
10
112.403
20
-159.798
40
0.500047
50
-179.995
51
-89.9946
0
LINE
8
BLACK
6
CONTINUOUS
10
178.29
20
-197.898
11
178.29
21
-184.898
0
LINE
8
BLACK
6
CONTINUOUS
10
202.89
20
-198.398
11
215.89
21
-198.398
0
LINE
8
BLACK
6
CONTINUOUS
10
178.578
20
-165.848
11
178.578
21
-178.848
0
ARC
8
BLACK
10
292.09
20
-184.898
40
0.499953
50
-0.0053853
51
89.9946
0
ARC
8
BLACK
10
258.753
20
-146.798
40
0.499953
50
-0.0053853
51
89.9946
0
ARC
8
BLACK
10
158.74
20
-184.898
40
0.499953
50
-0.0053853
51
89.9946
0
ARC
8
BLACK
10
358.549
20
-122.752
40
0.5
50
-0
51
90
0
ARC
8
BLACK
10
158.74
20
-197.898
40
0.500047
50
-89.9946
51
-0.0053853
0
ARC
8
BLACK
10
249.228
20
-165.848
40
0.499953
50
-0.0053853
51
89.9946
0
ARC
8
BLACK
10
358.765
20
-178.848
40
0.500047
50
-89.9946
51
-0.0053853
0
LINE
8
BLACK
6
CONTINUOUS
10
345.549
20
-136.252
11
358.549
21
-136.252
0
ARC
8
BLACK
10
345.765
20
-146.798
40
0.499953
50
-270.005
51
-179.995
0
ARC
8
BLACK
10
310.321
20
-191.223
40
0.499953
50
-0.00538584
51
90.0003
0
ARC
8
BLACK
10
231.465
20
-203.948
40
0.499953
50
-270.005
51
-179.995
0
ARC
8
BLACK
10
83.8277
20
-165.848
40
0.499953
50
-270.005
51
-179.995
0
LINE
8
BLACK
6
CONTINUOUS
10
117.296
20
-232.048
11
117.296
21
-226.198
0
LINE
8
BLACK
6
CONTINUOUS
10
73.8027
20
-146.798
11
73.8027
21
-159.798
0
LINE
8
BLACK
6
CONTINUOUS
10
171.146
20
-235.998
11
171.146
21
-222.998
0
ARC
8
BLACK
10
234.94
20
-184.898
40
0.499953
50
-0.0053853
51
89.9946
0
ARC
8
BLACK
10
130.165
20
-216.948
40
0.500047
50
-89.9946
51
-0.0053853
0
LINE
8
BLACK
6
CONTINUOUS
10
60.0152
20
-217.448
11
73.0152
21
-217.448
0
LINE
8
BLACK
6
CONTINUOUS
10
345.765
20
-217.448
11
358.765
21
-217.448
0
LINE
8
BLACK
6
CONTINUOUS
10
364.315
20
-146.798
11
364.315
21
-159.798
0
ARC
8
BLACK
10
101.59
20
-184.898
40
0.499953
50
-0.0053853
51
89.9946
0
LINE
8
BLACK
6
CONTINUOUS
10
230.678
20
-178.848
11
230.678
21
-165.848
0
LINE
8
BLACK
6
CONTINUOUS
10
145.24
20
-184.898
11
145.24
21
-197.898
0
ARC
8
BLACK
10
106.136
20
-122.752
40
0.5
50
-0
51
90
0
ARC
8
BLACK
10
35.9863
20
-135.752
40
0.5
50
-180
51
-90
0
ARC
8
BLACK
10
182.553
20
-159.798
40
0.500047
50
-89.9946
51
-0.0053853
0
LINE
8
BLACK
6
CONTINUOUS
10
229.961
20
-122.252
11
216.961
21
-122.252
0
LINE
8
BLACK
6
CONTINUOUS
10
169.553
20
-160.298
11
182.553
21
-160.298
0
LINE
8
BLACK
6
CONTINUOUS
10
245.753
20
-160.298
11
258.753
21
-160.298
0
LINE
8
BLACK
6
CONTINUOUS
10
277.586
20
-122.252
11
264.586
21
-122.252
0
LINE
8
BLACK
6
CONTINUOUS
10
183.34
20
-184.898
11
183.34
21
-197.898
0
LINE
8
BLACK
6
CONTINUOUS
10
292.59
20
-197.898
11
292.59
21
-184.898
0
LINE
8
BLACK
6
CONTINUOUS
10
345.265
20
-203.948
11
345.265
21
-216.948
0
ARC
8
BLACK
10
225.415
20
-203.948
40
0.499953
50
-0.0053853
51
89.9946
0
LINE
8
BLACK
6
CONTINUOUS
10
68.2527
20
-146.298
11
55.2527
21
-146.298
0
LINE
8
BLACK
6
CONTINUOUS
10
64.7777
20
-179.348
11
77.7777
21
-179.348
0
LINE
8
BLACK
6
CONTINUOUS
10
359.265
20
-235.998
11
359.265
21
-222.998
0
ARC
8
BLACK
10
250.515
20
-216.948
40
0.500047
50
-179.995
51
-89.9946
0
ARC
8
BLACK
10
149.215
20
-203.948
40
0.499953
50
-0.0053853
51
89.9946
0
ARC
8
BLACK
10
304.471
20
-196.523
40
0.500047
50
-179.995
51
-90.0003
0
LINE
8
BLACK
6
CONTINUOUS
10
206.865
20
-216.948
11
206.865
21
-203.948
0
ARC
8
BLACK
10
225.415
20
-216.948
40
0.500047
50
-89.9946
51
-0.0053853
0
LINE
8
BLACK
6
CONTINUOUS
10
310.321
20
-190.723
11
304.471
21
-190.723
0
LINE
8
BLACK
6
CONTINUOUS
10
216.678
20
-165.848
11
216.678
21
-178.848
0
LINE
8
BLACK
6
CONTINUOUS
10
101.59
20
-184.398
11
88.5902
21
-184.398
0
ARC
8
BLACK
10
358.765
20
-146.798
40
0.499953
50
-0.0053853
51
89.9946
0
LINE
8
BLACK
6
CONTINUOUS
10
259.253
20
-159.798
11
259.253
21
-146.798
0
ARC
8
BLACK
10
242.084
20
-222.998
40
0.499953
50
-0.00538584
51
90.0003
0
ARC
8
BLACK
10
377.599
20
-135.752
40
0.5
50
-90
51
-0
0
ARC
8
BLACK
10
73.0152
20
-203.948
40
0.499953
50
-0.0053853
51
89.9946
0
LINE
8
BLACK
6
CONTINUOUS
10
157.146
20
-222.998
11
157.146
21
-235.998
0
ARC
8
BLACK
10
326.715
20
-159.798
40
0.500047
50
-179.995
51
-89.9946
0
ARC
8
BLACK
10
377.815
20
-165.848
40
0.499953
50
-0.0053853
51
89.9946
0
ARC
8
BLACK
10
74.0863
20
-122.752
40
0.5
50
90
51
180
0
ARC
8
BLACK
10
245.536
20
-135.752
40
0.5
50
-180
51
-90
0
LINE
8
BLACK
6
CONTINUOUS
10
314.971
20
-168.073
11
310.821
21
-168.073
0
ARC
8
BLACK
10
160.028
20
-165.848
40
0.499953
50
-270.005
51
-179.995
0
LINE
8
BLACK
6
CONTINUOUS
10
68.7527
20
-159.798
11
68.7527
21
-146.798
0
LINE
8
BLACK
6
CONTINUOUS
10
144.736
20
-135.752
11
144.736
21
-122.752
0
LINE
8
BLACK
6
CONTINUOUS
10
307.884
20
-212.998
11
307.884
21
-207.148
0
ARC
8
BLACK
10
264.586
20
-135.752
40
0.5
50
-180
51
-90
0
ARC
8
BLACK
10
155.265
20
-203.948
40
0.499953
50
-270.005
51
-179.995
0
ARC
8
BLACK
10
290.528
20
-155.848
40
0.500047
50
-89.9946
51
-0.0053853
0
LINE
8
BLACK
6
CONTINUOUS
10
202.39
20
-184.898
11
202.39
21
-197.898
0
LINE
8
BLACK
6
CONTINUOUS
10
306.034
20
-201.998
11
303.434
21
-201.998
0
LINE
8
BLACK
6
CONTINUOUS
10
236.228
20
-179.348
11
249.228
21
-179.348
0
ARC
8
BLACK
10
364.815
20
-222.998
40
0.499953
50
-270.005
51
-179.995
0
LINE
8
BLACK
6
CONTINUOUS
10
187.815
20
-216.948
11
187.815
21
-203.948
0
ARC
8
BLACK
10
107.64
20
-184.898
40
0.499953
50
-270.005
51
-179.995
0
LINE
8
BLACK
6
CONTINUOUS
10
359.265
20
-178.848
11
359.265
21
-165.848
0
LINE
8
BLACK
6
CONTINUOUS
10
102.09
20
-197.898
11
102.09
21
-184.898
0
LINE
8
BLACK
6
CONTINUOUS
10
150.003
20
-146.798
11
150.003
21
-159.798
0
LINE
8
BLACK
6
CONTINUOUS
10
326.215
20
-222.998
11
326.215
21
-235.998
0
LINE
8
BLACK
6
CONTINUOUS
10
73.5863
20
-122.752
11
73.5863
21
-135.752
0
ARC
8
BLACK
10
310.321
20
-196.523
40
0.499997
50
-90.0003
51
-0.00538584
0
LINE
8
BLACK
6
CONTINUOUS
10
61.8965
20
-222.998
11
61.8965
21
-235.998
0
ARC
8
BLACK
10
164.79
20
-184.898
40
0.499953
50
-270.005
51
-179.995
0
ARC
8
BLACK
10
258.536
20
-135.752
40
0.5
50
-90
51
-0
0
LINE
8
BLACK
6
CONTINUOUS
10
359.049
20
-135.752
11
359.049
21
-122.752
0
ARC
8
BLACK
10
121.928
20
-165.848
40
0.499953
50
-270.005
51
-179.995
0
LINE
8
BLACK
6
CONTINUOUS
10
245.253
20
-146.798
11
245.253
21
-159.798
0
ARC
8
BLACK
10
106.136
20
-135.752
40
0.5
50
-90
51
-0
0
ARC
8
BLACK
10
293.378
20
-146.798
40
0.499953
50
-270.005
51
-179.995
0
ARC
8
BLACK
10
302.084
20
-207.148
40
0.500003
50
-270
51
-179.995
0
LINE
8
BLACK
6
CONTINUOUS
10
212.346
20
-225.698
11
211.496
21
-225.698
0
LINE
8
BLACK
6
CONTINUOUS
10
276.709
20
-236.498
11
289.709
21
-236.498
0
ARC
8
BLACK
10
173.028
20
-165.848
40
0.499953
50
-0.0053853
51
89.9946
0
LINE
8
BLACK
6
CONTINUOUS
10
359.265
20
-216.948
11
359.265
21
-203.948
0
LINE
8
BLACK
6
CONTINUOUS
10
339.715
20
-222.498
11
326.715
21
-222.498
0
ARC
8
BLACK
10
314.971
20
-192.573
40
0.499953
50
-0.00538584
51
90.0003
0
LINE
8
BLACK
6
CONTINUOUS
10
192.361
20
-135.752
11
192.361
21
-122.752
0
LINE
8
BLACK
6
CONTINUOUS
10
230.461
20
-135.752
11
230.461
21
-122.752
0
ARC
8
BLACK
10
207.653
20
-146.798
40
0.499953
50
-270.005
51
-179.995
0
ARC
8
BLACK
10
64.7777
20
-178.848
40
0.500047
50
-179.995
51
-89.9946
0
ARC
8
BLACK
10
377.815
20
-159.798
40
0.500047
50
-89.9946
51
-0.0053853
0
ARC
8
BLACK
10
51.584
20
-235.998
40
0.499997
50
-90.0003
51
-0.00538584
0
ARC
8
BLACK
10
168.265
20
-203.948
40
0.499953
50
-0.0053853
51
89.9946
0
ARC
8
BLACK
10
88.5902
20
-184.898
40
0.499953
50
-270.005
51
-179.995
0
ARC
8
BLACK
10
265.897
20
-235.998
40
0.499997
50
-90.0003
51
-0.00538584
0
LINE
8
BLACK
6
CONTINUOUS
10
303.971
20
-191.223
11
303.971
21
-196.523
0
ARC
8
BLACK
10
313.178
20
-145.348
40
0.499953
50
-0.0053853
51
89.9946
0
ARC
8
BLACK
10
55.2527
20
-159.798
40
0.500047
50
-179.995
51
-89.9946
0
ARC
8
BLACK
10
191.861
20
-135.752
40
0.5
50
-90
51
-0
0
ARC
8
BLACK
10
236.228
20
-165.848
40
0.499953
50
-270.005
51
-179.995
0
ARC
8
BLACK
10
229.084
20
-222.998
40
0.500003
50
-270
51
-179.995
0
ARC
8
BLACK
10
326.715
20
-146.798
40
0.499953
50
-270.005
51
-179.995
0
ARC
8
BLACK
10
120.64
20
-184.898
40
0.499953
50
-0.0053853
51
89.9946
0
ARC
8
BLACK
10
87.3027
20
-159.798
40
0.500047
50
-89.9946
51
-0.0053853
0
LINE
8
BLACK
6
CONTINUOUS
10
278.303
20
-159.798
11
278.303
21
-146.798
0
LINE
8
BLACK
6
CONTINUOUS
10
378.315
20
-159.798
11
378.315
21
-146.798
0
LINE
8
BLACK
6
CONTINUOUS
10
240.49
20
-184.898
11
240.49
21
-197.898
0
LINE
8
BLACK
6
CONTINUOUS
10
326.715
20
-236.498
11
339.715
21
-236.498
0
ARC
8
BLACK
10
68.2527
20
-146.798
40
0.499953
50
-0.0053853
51
89.9946
0
ARC
8
BLACK
10
303.434
20
-202.498
40
0.500003
50
-270
51
-179.995
0
ARC
8
BLACK
10
310.578
20
-145.348
40
0.499953
50
-270.005
51
-179.995
0
LINE
8
BLACK
6
CONTINUOUS
10
139.69
20
-184.398
11
126.69
21
-184.398
0
LINE
8
BLACK
6
CONTINUOUS
10
315.686
20
-122.252
11
302.686
21
-122.252
0
ARC
8
BLACK
10
339.499
20
-122.752
40
0.5
50
-0
51
90
0
ARC
8
BLACK
10
96.8277
20
-165.848
40
0.499953
50
-0.0053853
51
89.9946
0
LINE
8
BLACK
6
CONTINUOUS
10
245.536
20
-136.252
11
258.536
21
-136.252
0
ARC
8
BLACK
10
170.647
20
-222.998
40
0.499953
50
-0.00538584
51
90.0003
0
ARC
8
BLACK
10
290.528
20
-149.998
40
0.499953
50
-0.0053853
51
89.9946
0
LINE
8
BLACK
6
CONTINUOUS
10
55.2527
20
-160.298
11
68.2527
21
-160.298
0
ARC
8
BLACK
10
326.715
20
-178.848
40
0.500047
50
-179.995
51
-89.9946
0
ARC
8
BLACK
10
302.686
20
-135.752
40
0.5
50
-180
51
-90
0
LINE
8
BLACK
6
CONTINUOUS
10
196.84
20
-184.398
11
183.84
21
-184.398
0
LINE
8
BLACK
6
CONTINUOUS
10
345.265
20
-146.798
11
345.265
21
-159.798
0
ARC
8
BLACK
10
278.084
20
-212.998
40
0.500047
50
-179.995
51
-90.0003
0
LINE
8
BLACK
6
CONTINUOUS
10
51.584
20
-222.498
11
38.584
21
-222.498
0
LINE
8
BLACK
6
CONTINUOUS
10
74.0863
20
-136.252
11
87.0863
21
-136.252
0
LINE
8
BLACK
6
CONTINUOUS
10
358.765
20
-222.498
11
345.765
21
-222.498
0
ARC
8
BLACK
10
339.715
20
-146.798
40
0.499953
50
-0.0053853
51
89.9946
0
ARC
8
BLACK
10
43.3465
20
-197.898
40
0.500047
50
-179.995
51
-90.0003
0
LINE
8
BLACK
6
CONTINUOUS
10
304.471
20
-197.023
11
310.321
21
-197.023
0
LINE
8
BLACK
6
CONTINUOUS
10
326.715
20
-160.298
11
339.715
21
-160.298
0
CIRCLE
8
BLACK
10
375.319
20
-216.002
40
1.3
0
LINE
8
BLACK
6
CONTINUOUS
10
159.811
20
-136.252
11
172.811
21
-136.252
0
ARC
8
BLACK
10
198.128
20
-178.848
40
0.500047
50
-179.995
51
-89.9946
0
ARC
8
BLACK
10
111.496
20
-232.048
40
0.500047
50
-179.995
51
-90.0003
0
LINE
8
BLACK
6
CONTINUOUS
10
54.7527
20
-146.798
11
54.7527
21
-159.798
0
ARC
8
BLACK
10
140.978
20
-165.848
40
0.499953
50
-270.005
51
-179.995
0
LINE
8
BLACK
6
CONTINUOUS
10
315.028
20
-155.848
11
315.028
21
-149.998
0
ARC
8
BLACK
10
88.5902
20
-197.898
40
0.500047
50
-179.995
51
-89.9946
0
ARC
8
BLACK
10
345.765
20
-216.948
40
0.500047
50
-179.995
51
-89.9946
0
LINE
8
BLACK
6
CONTINUOUS
10
40.9652
20
-179.348
11
53.9652
21
-179.348
0
LINE
8
BLACK
6
CONTINUOUS
10
378.315
20
-235.998
11
378.315
21
-222.998
0
LINE
8
BLACK
6
CONTINUOUS
10
378.099
20
-135.752
11
378.099
21
-122.752
0
LINE
8
BLACK
6
CONTINUOUS
10
207.153
20
-146.798
11
207.153
21
-159.798
0
LINE
8
BLACK
6
CONTINUOUS
10
170.646
20
-222.498
11
157.646
21
-222.498
0
ARC
8
BLACK
10
40.9652
20
-178.848
40
0.500047
50
-179.995
51
-89.9946
0
LINE
8
BLACK
6
CONTINUOUS
10
358.549
20
-122.252
11
345.549
21
-122.252
0
LINE
8
BLACK
6
CONTINUOUS
10
217.178
20
-179.348
11
230.178
21
-179.348
0
LINE
8
BLACK
6
CONTINUOUS
10
154.478
20
-178.848
11
154.478
21
-165.848
0
ARC
8
BLACK
10
252.896
20
-235.998
40
0.500047
50
-179.995
51
-90.0003
0
ARC
8
BLACK
10
358.765
20
-165.848
40
0.499953
50
-0.0053853
51
89.9946
0
LINE
8
BLACK
6
CONTINUOUS
10
136.215
20
-217.448
11
149.215
21
-217.448
0
LINE
8
BLACK
6
CONTINUOUS
10
306.534
20
-206.648
11
306.534
21
-202.498
0
LINE
8
BLACK
6
CONTINUOUS
10
277.803
20
-146.298
11
264.803
21
-146.298
0
LINE
8
BLACK
6
CONTINUOUS
10
154.765
20
-203.948
11
154.765
21
-216.948
0
ARC
8
BLACK
10
170.647
20
-235.998
40
0.499997
50
-90.0003
51
-0.00538584
0
LINE
8
BLACK
6
CONTINUOUS
10
212.346
20
-221.548
11
212.346
21
-225.698
0
ARC
8
BLACK
10
55.2527
20
-146.798
40
0.499953
50
-270.005
51
-179.995
0
LINE
8
BLACK
6
CONTINUOUS
10
43.3465
20
-198.398
11
56.3465
21
-198.398
0
LINE
8
BLACK
6
CONTINUOUS
10
125.186
20
-122.252
11
112.186
21
-122.252
0
ARC
8
BLACK
10
125.186
20
-135.752
40
0.5
50
-90
51
-0
0
ARC
8
BLACK
10
168.265
20
-216.948
40
0.500047
50
-89.9946
51
-0.0053853
0
ARC
8
BLACK
10
75.3965
20
-235.998
40
0.499997
50
-90.0003
51
-0.00538584
0
ARC
8
BLACK
10
282.034
20
-202.498
40
0.499953
50
-0.00538584
51
90.0003
0
ARC
8
BLACK
10
155.265
20
-216.948
40
0.500047
50
-179.995
51
-89.9946
0
LINE
8
BLACK
6
CONTINUOUS
10
314.021
20
-188.373
11
314.021
21
-175.373
0
LINE
8
BLACK
6
CONTINUOUS
10
62.3965
20
-236.498
11
75.3965
21
-236.498
0
ARC
8
BLACK
10
276.709
20
-222.998
40
0.500003
50
-270
51
-179.995
0
ARC
8
BLACK
10
40.9652
20
-165.848
40
0.499953
50
-270.005
51
-179.995
0
ARC
8
BLACK
10
279.09
20
-197.898
40
0.500047
50
-179.995
51
-89.9946
0
ARC
8
BLACK
10
126.69
20
-184.898
40
0.499953
50
-270.005
51
-179.995
0
CIRCLE
8
BLACK
10
56.6188
20
-220.202
40
1.3
0
ARC
8
BLACK
10
48.9863
20
-135.752
40
0.5
50
-90
51
-0
0
LINE
8
BLACK
6
CONTINUOUS
10
215.946
20
-225.698
11
215.946
21
-221.548
0
ARC
8
BLACK
10
198.128
20
-165.848
40
0.499953
50
-270.005
51
-179.995
0
ARC
8
BLACK
10
296.636
20
-122.752
40
0.5
50
-0
51
90
0
ARC
8
BLACK
10
187.315
20
-203.948
40
0.499953
50
-0.0053853
51
89.9946
0
ARC
8
BLACK
10
174.315
20
-216.948
40
0.500047
50
-179.995
51
-89.9946
0
ARC
8
BLACK
10
159.811
20
-122.752
40
0.5
50
90
51
180
0
LINE
8
BLACK
6
CONTINUOUS
10
299.734
20
-216.948
11
299.734
21
-203.948
0
LINE
8
BLACK
6
CONTINUOUS
10
197.628
20
-165.848
11
197.628
21
-178.848
0
ARC
8
BLACK
10
111.496
20
-226.198
40
0.500003
50
-270
51
-179.995
0
LINE
8
BLACK
6
CONTINUOUS
10
228.584
20
-222.998
11
228.584
21
-235.998
0
ARC
8
BLACK
10
274.328
20
-165.848
40
0.499953
50
-270.005
51
-179.995
0
LINE
8
BLACK
6
CONTINUOUS
10
252.396
20
-222.998
11
252.396
21
-235.998
0
ARC
8
BLACK
10
258.753
20
-159.798
40
0.500047
50
-89.9946
51
-0.0053853
0
ARC
8
BLACK
10
99.209
20
-222.998
40
0.499953
50
-0.00538584
51
90.0003
0
LINE
8
BLACK
6
CONTINUOUS
10
126.19
20
-184.898
11
126.19
21
-197.898
0
ARC
8
BLACK
10
112.186
20
-122.752
40
0.5
50
90
51
180
0
LINE
8
BLACK
6
CONTINUOUS
10
340.215
20
-235.998
11
340.215
21
-222.998
0
LINE
8
BLACK
6
CONTINUOUS
10
345.765
20
-236.498
11
358.765
21
-236.498
0
LINE
8
BLACK
6
CONTINUOUS
10
197.911
20
-136.252
11
210.911
21
-136.252
0
ARC
8
BLACK
10
131.236
20
-122.752
40
0.5
50
90
51
180
0
LINE
8
BLACK
6
CONTINUOUS
10
364.315
20
-165.848
11
364.315
21
-178.848
0
ARC
8
BLACK
10
215.89
20
-197.898
40
0.500047
50
-89.9946
51
-0.0053853
0
LINE
8
BLACK
6
CONTINUOUS
10
173.311
20
-135.752
11
173.311
21
-122.752
0
LINE
8
BLACK
6
CONTINUOUS
10
56.8465
20
-197.898
11
56.8465
21
-184.898
0
ARC
8
BLACK
10
245.753
20
-146.798
40
0.499953
50
-270.005
51
-179.995
0
ARC
8
BLACK
10
64.7777
20
-165.848
40
0.499953
50
-270.005
51
-179.995
0
LINE
8
BLACK
6
CONTINUOUS
10
293.378
20
-160.298
11
306.378
21
-160.298
0
LINE
8
BLACK
6
CONTINUOUS
10
216.461
20
-122.752
11
216.461
21
-135.752
0
ARC
8
BLACK
10
43.3465
20
-184.898
40
0.500003
50
-270
51
-179.995
0
ARC
8
BLACK
10
196.84
20
-184.898
40
0.499953
50
-0.0053853
51
89.9946
0
ARC
8
BLACK
10
339.715
20
-222.998
40
0.499953
50
-0.0053853
51
89.9946
0
LINE
8
BLACK
6
CONTINUOUS
10
83.0402
20
-197.898
11
83.0402
21
-184.898
0
ARC
8
BLACK
10
212.846
20
-221.548
40
0.500003
50
-270
51
-179.995
0
ARC
8
BLACK
10
273.04
20
-184.898
40
0.499953
50
-0.0053853
51
89.9946
0
ARC
8
BLACK
10
234.94
20
-197.898
40
0.500047
50
-89.9946
51
-0.0053853
0
ARC
8
BLACK
10
112.186
20
-135.752
40
0.5
50
-180
51
-90
0
ARC
8
BLACK
10
296.636
20
-135.752
40
0.5
50
-90
51
-0
0
LINE
8
BLACK
6
CONTINUOUS
10
88.0902
20
-184.898
11
88.0902
21
-197.898
0
LINE
8
BLACK
6
CONTINUOUS
10
120.64
20
-184.398
11
107.64
21
-184.398
0
ARC
8
BLACK
10
174.315
20
-203.948
40
0.499953
50
-270.005
51
-179.995
0
ARC
8
BLACK
10
260.04
20
-197.898
40
0.500047
50
-179.995
51
-89.9946
0
ARC
8
BLACK
10
212.415
20
-216.948
40
0.500047
50
-179.995
51
-89.9946
0
ARC
8
BLACK
10
38.584
20
-222.998
40
0.500003
50
-270
51
-179.995
0
LINE
8
BLACK
6
CONTINUOUS
10
77.7777
20
-165.348
11
64.7777
21
-165.348
0
ARC
8
BLACK
10
216.796
20
-226.198
40
0.499953
50
-0.00538584
51
90.0003
0
ARC
8
BLACK
10
306.378
20
-159.798
40
0.500047
50
-89.9946
51
-0.0053853
0
ARC
8
BLACK
10
302.686
20
-122.752
40
0.5
50
90
51
180
0
ARC
8
BLACK
10
179.078
20
-178.848
40
0.500047
50
-179.995
51
-89.9946
0
LINE
8
BLACK
6
CONTINUOUS
10
299.234
20
-203.448
11
286.234
21
-203.448
0
ARC
8
BLACK
10
313.522
20
-222.998
40
0.499953
50
-0.00538584
51
90.0003
0
LINE
8
BLACK
6
CONTINUOUS
10
87.0863
20
-122.252
11
74.0863
21
-122.252
0
ARC
8
BLACK
10
216.961
20
-135.752
40
0.5
50
-180
51
-90
0
ARC
8
BLACK
10
125.186
20
-122.752
40
0.5
50
-0
51
90
0
LINE
8
BLACK
6
CONTINUOUS
10
35.9863
20
-136.252
11
48.9863
21
-136.252
0
LINE
8
BLACK
6
CONTINUOUS
10
273.54
20
-197.898
11
273.54
21
-184.898
0
ARC
8
BLACK
10
244.465
20
-216.948
40
0.500047
50
-89.9946
51
-0.0053853
0
LINE
8
BLACK
6
CONTINUOUS
10
158.74
20
-184.398
11
145.74
21
-184.398
0
LINE
8
BLACK
6
CONTINUOUS
10
265.896
20
-222.498
11
252.896
21
-222.498
0
LINE
8
BLACK
6
CONTINUOUS
10
289.178
20
-144.848
11
286.578
21
-144.848
0
ARC
8
BLACK
10
211.496
20
-226.198
40
0.500003
50
-270
51
-179.995
0
LINE
8
BLACK
6
CONTINUOUS
10
215.89
20
-184.398
11
202.89
21
-184.398
0
ARC
8
BLACK
10
126.69
20
-197.898
40
0.500047
50
-179.995
51
-89.9946
0
ARC
8
BLACK
10
201.603
20
-159.798
40
0.500047
50
-89.9946
51
-0.0053853
0
ARC
8
BLACK
10
115.878
20
-165.848
40
0.499953
50
-0.0053853
51
89.9946
0
ARC
8
BLACK
10
36.2027
20
-159.798
40
0.500047
50
-179.995
51
-89.9946
0
LINE
8
BLACK
6
CONTINUOUS
10
325.999
20
-122.752
11
325.999
21
-135.752
0
LINE
8
BLACK
6
CONTINUOUS
10
216.39
20
-197.898
11
216.39
21
-184.898
0
ARC
8
BLACK
10
131.453
20
-146.798
40
0.499953
50
-270.005
51
-179.995
0
LINE
8
BLACK
6
CONTINUOUS
10
306.878
20
-159.798
11
306.878
21
-146.798
0
LINE
8
BLACK
6
CONTINUOUS
10
38.084
20
-222.998
11
38.084
21
-235.998
0
ARC
8
BLACK
10
117.165
20
-203.948
40
0.499953
50
-270.005
51
-179.995
0
LINE
8
BLACK
6
CONTINUOUS
10
278.934
20
-202.498
11
278.934
21
-206.648
0
LINE
8
BLACK
6
CONTINUOUS
10
144.953
20
-159.798
11
144.953
21
-146.798
0
LINE
8
BLACK
6
CONTINUOUS
10
163.503
20
-146.298
11
150.503
21
-146.298
0
ARC
8
BLACK
10
364.815
20
-159.798
40
0.500047
50
-179.995
51
-89.9946
0
LINE
8
BLACK
6
CONTINUOUS
10
377.599
20
-122.252
11
364.599
21
-122.252
0
LINE
8
BLACK
6
CONTINUOUS
10
345.765
20
-179.348
11
358.765
21
-179.348
0
LINE
8
BLACK
6
CONTINUOUS
10
201.603
20
-146.298
11
188.603
21
-146.298
0
ARC
8
BLACK
10
207.653
20
-159.798
40
0.500047
50
-179.995
51
-89.9946
0
LINE
8
BLACK
6
CONTINUOUS
10
35.4863
20
-122.752
11
35.4863
21
-135.752
0
ARC
8
BLACK
10
377.815
20
-146.798
40
0.499953
50
-0.0053853
51
89.9946
0
LINE
8
BLACK
6
CONTINUOUS
10
358.765
20
-203.448
11
345.765
21
-203.448
0
LINE
8
BLACK
6
CONTINUOUS
10
264.086
20
-122.752
11
264.086
21
-135.752
0
ARC
8
BLACK
10
212.415
20
-203.948
40
0.499953
50
-270.005
51
-179.995
0
LINE
8
BLACK
6
CONTINUOUS
10
187.315
20
-203.448
11
174.315
21
-203.448
0
ARC
8
BLACK
10
116.796
20
-226.198
40
0.499953
50
-0.00538584
51
90.0003
0
LINE
8
BLACK
6
CONTINUOUS
10
285.228
20
-156.348
11
290.528
21
-156.348
0
ARC
8
BLACK
10
226.703
20
-146.798
40
0.499953
50
-270.005
51
-179.995
0
LINE
8
BLACK
6
CONTINUOUS
10
179.078
20
-179.348
11
192.078
21
-179.348
0
ARC
8
BLACK
10
86.209
20
-235.998
40
0.500047
50
-179.995
51
-90.0003
0
ARC
8
BLACK
10
144.236
20
-122.752
40
0.5
50
-0
51
90
0
ARC
8
BLACK
10
358.765
20
-235.998
40
0.500047
50
-89.9946
51
-0.0053853
0
LINE
8
BLACK
6
CONTINUOUS
10
226.203
20
-146.798
11
226.203
21
-159.798
0
ARC
8
BLACK
10
211.128
20
-178.848
40
0.500047
50
-89.9946
51
-0.0053853
0
LINE
8
BLACK
6
CONTINUOUS
10
292.09
20
-184.398
11
279.09
21
-184.398
0
ARC
8
BLACK
10
68.2527
20
-159.798
40
0.500047
50
-89.9946
51
-0.0053853
0
ARC
8
BLACK
10
215.89
20
-184.898
40
0.499953
50
-0.0053853
51
89.9946
0
ARC
8
BLACK
10
315.686
20
-135.752
40
0.5
50
-90
51
-0
0
LINE
8
BLACK
6
CONTINUOUS
10
264.586
20
-136.252
11
277.586
21
-136.252
0
LINE
8
BLACK
6
CONTINUOUS
10
340.215
20
-159.798
11
340.215
21
-146.798
0
ARC
8
BLACK
10
217.178
20
-165.848
40
0.499953
50
-270.005
51
-179.995
0
LINE
8
BLACK
6
CONTINUOUS
10
87.3027
20
-146.298
11
74.3027
21
-146.298
0
ARC
8
BLACK
10
240.99
20
-197.898
40
0.500047
50
-179.995
51
-89.9946
0
LINE
8
BLACK
6
CONTINUOUS
10
93.1363
20
-136.252
11
106.136
21
-136.252
0
LINE
8
BLACK
6
CONTINUOUS
10
102.878
20
-179.348
11
115.878
21
-179.348
0
LINE
8
BLACK
6
CONTINUOUS
10
173.815
20
-203.948
11
173.815
21
-216.948
0
ARC
8
BLACK
10
326.715
20
-222.998
40
0.499953
50
-270.005
51
-179.995
0
LINE
8
BLACK
6
CONTINUOUS
10
290.528
20
-149.498
11
289.678
21
-149.498
0
LINE
8
BLACK
6
CONTINUOUS
10
164.003
20
-159.798
11
164.003
21
-146.798
0
LINE
8
BLACK
6
CONTINUOUS
10
260.04
20
-198.398
11
273.04
21
-198.398
0
LINE
8
BLACK
6
CONTINUOUS
10
239.703
20
-146.298
11
226.703
21
-146.298
0
LINE
8
BLACK
6
CONTINUOUS
10
300.021
20
-175.373
11
300.021
21
-188.373
0
LINE
8
BLACK
6
CONTINUOUS
10
255.278
20
-179.348
11
268.278
21
-179.348
0
ARC
8
BLACK
10
159.811
20
-135.752
40
0.5
50
-180
51
-90
0
LINE
8
BLACK
6
CONTINUOUS
10
197.34
20
-197.898
11
197.34
21
-184.898
0
LINE
8
BLACK
6
CONTINUOUS
10
202.103
20
-159.798
11
202.103
21
-146.798
0
ARC
8
BLACK
10
157.647
20
-235.998
40
0.500047
50
-179.995
51
-90.0003
0
ARC
8
BLACK
10
377.599
20
-122.752
40
0.5
50
-0
51
90
0
LINE
8
BLACK
6
CONTINUOUS
10
183.84
20
-198.398
11
196.84
21
-198.398
0
LINE
8
BLACK
6
CONTINUOUS
10
307.384
20
-206.648
11
306.534
21
-206.648
0
ARC
8
BLACK
10
149.215
20
-216.948
40
0.500047
50
-89.9946
51
-0.0053853
0
ARC
8
BLACK
10
220.653
20
-159.798
40
0.500047
50
-89.9946
51
-0.0053853
0
LINE
8
BLACK
6
CONTINUOUS
10
73.0152
20
-203.448
11
60.0152
21
-203.448
0
ARC
8
BLACK
10
49.2027
20
-146.798
40
0.499953
50
-0.0053853
51
89.9946
0
ARC
8
BLACK
10
283.384
20
-212.998
40
0.499997
50
-90.0003
51
-0.00538584
0
ARC
8
BLACK
10
93.3527
20
-159.798
40
0.500047
50
-179.995
51
-89.9946
0
ARC
8
BLACK
10
163.503
20
-159.798
40
0.500047
50
-89.9946
51
-0.0053853
0
ARC
8
BLACK
10
279.09
20
-184.898
40
0.499953
50
-270.005
51
-179.995
0
LINE
8
BLACK
6
CONTINUOUS
10
130.165
20
-203.448
11
117.165
21
-203.448
0
LINE
8
BLACK
6
CONTINUOUS
10
283.884
20
-212.998
11
283.884
21
-207.148
0
LINE
8
BLACK
6
CONTINUOUS
10
310.821
20
-171.673
11
314.971
21
-171.673
0
LINE
8
BLACK
6
CONTINUOUS
10
52.084
20
-235.998
11
52.084
21
-222.998
0
LINE
8
BLACK
6
CONTINUOUS
10
231.465
20
-217.448
11
244.465
21
-217.448
0
LINE
8
BLACK
6
CONTINUOUS
10
215.446
20
-221.048
11
212.846
21
-221.048
0
LINE
8
BLACK
6
CONTINUOUS
10
249.228
20
-165.348
11
236.228
21
-165.348
0
ARC
8
BLACK
10
242.084
20
-235.998
40
0.499997
50
-90.0003
51
-0.00538584
0
ARC
8
BLACK
10
125.403
20
-159.798
40
0.500047
50
-89.9946
51
-0.0053853
0
ARC
8
BLACK
10
299.234
20
-203.948
40
0.499953
50
-0.00538584
51
90.0003
0
ARC
8
BLACK
10
197.911
20
-122.752
40
0.5
50
90
51
180
0
ARC
8
BLACK
10
287.328
20
-178.848
40
0.500047
50
-89.9946
51
-0.0053853
0
LINE
8
BLACK
6
CONTINUOUS
10
107.14
20
-184.898
11
107.14
21
-197.898
0
LINE
8
BLACK
6
CONTINUOUS
10
74.3027
20
-160.298
11
87.3027
21
-160.298
0
ARC
8
BLACK
10
278.084
20
-207.148
40
0.500003
50
-270
51
-179.995
0
LINE
8
BLACK
6
CONTINUOUS
10
106.636
20
-135.752
11
106.636
21
-122.752
0
LINE
8
BLACK
6
CONTINUOUS
10
282.034
20
-201.998
11
279.434
21
-201.998
0
LINE
8
BLACK
6
CONTINUOUS
10
78.2777
20
-178.848
11
78.2777
21
-165.848
0
LINE
8
BLACK
6
CONTINUOUS
10
316.186
20
-135.752
11
316.186
21
-122.752
0
ARC
8
BLACK
10
79.0652
20
-203.948
40
0.499953
50
-270.005
51
-179.995
0
ARC
8
BLACK
10
36.2027
20
-146.798
40
0.499953
50
-270.005
51
-179.995
0
ARC
8
BLACK
10
74.3027
20
-146.798
40
0.499953
50
-270.005
51
-179.995
0
LINE
8
BLACK
6
CONTINUOUS
10
99.209
20
-222.498
11
86.209
21
-222.498
0
ARC
8
BLACK
10
87.3027
20
-146.798
40
0.499953
50
-0.0053853
51
89.9946
0
ARC
8
BLACK
10
229.084
20
-235.998
40
0.500047
50
-179.995
51
-90.0003
0
LINE
8
BLACK
6
CONTINUOUS
10
75.3965
20
-222.498
11
62.3965
21
-222.498
0
ARC
8
BLACK
10
140.978
20
-178.848
40
0.500047
50
-179.995
51
-89.9946
0
LINE
8
BLACK
6
CONTINUOUS
10
125.403
20
-146.298
11
112.403
21
-146.298
0
ARC
8
BLACK
10
285.228
20
-155.848
40
0.500047
50
-179.995
51
-89.9946
0
LINE
8
BLACK
6
CONTINUOUS
10
302.934
20
-202.498
11
302.934
21
-206.648
0
ARC
8
BLACK
10
277.586
20
-122.752
40
0.5
50
-0
51
90
0
LINE
8
BLACK
6
CONTINUOUS
10
254.49
20
-197.898
11
254.49
21
-184.898
0
ARC
8
BLACK
10
268.278
20
-165.848
40
0.499953
50
-0.0053853
51
89.9946
0
LINE
8
BLACK
6
CONTINUOUS
10
173.528
20
-178.848
11
173.528
21
-165.848
0
LINE
8
BLACK
6
CONTINUOUS
10
252.896
20
-236.498
11
265.896
21
-236.498
0
ARC
8
BLACK
10
120.64
20
-197.898
40
0.500047
50
-89.9946
51
-0.0053853
0
LINE
8
BLACK
6
CONTINUOUS
10
235.44
20
-197.898
11
235.44
21
-184.898
0
LINE
8
BLACK
6
CONTINUOUS
10
182.553
20
-146.298
11
169.553
21
-146.298
0
ARC
8
BLACK
10
230.178
20
-178.848
40
0.500047
50
-89.9946
51
-0.0053853
0
LINE
8
BLACK
6
CONTINUOUS
10
97.3277
20
-178.848
11
97.3277
21
-165.848
0
LINE
8
BLACK
6
CONTINUOUS
10
286.234
20
-217.448
11
299.234
21
-217.448
0
ARC
8
BLACK
10
286.234
20
-216.948
40
0.500047
50
-179.995
51
-90.0003
0
LINE
8
BLACK
6
CONTINUOUS
10
279.09
20
-198.398
11
292.09
21
-198.398
0
ARC
8
BLACK
10
300.522
20
-222.998
40
0.500003
50
-270
51
-179.995
0
LINE
8
BLACK
6
CONTINUOUS
10
278.084
20
-213.498
11
283.384
21
-213.498
0
ARC
8
BLACK
10
285.228
20
-149.998
40
0.499953
50
-270.005
51
-179.995
0
ARC
8
BLACK
10
221.94
20
-197.898
40
0.500047
50
-179.995
51
-89.9946
0
ARC
8
BLACK
10
87.0863
20
-122.752
40
0.5
50
-0
51
90
0
ARC
8
BLACK
10
96.8277
20
-178.848
40
0.500047
50
-89.9946
51
-0.0053853
0
ARC
8
BLACK
10
62.3965
20
-235.998
40
0.500047
50
-179.995
51
-90.0003
0
LINE
8
BLACK
6
CONTINUOUS
10
278.934
20
-206.648
11
278.084
21
-206.648
0
ARC
8
BLACK
10
250.515
20
-203.948
40
0.499953
50
-270.005
51
-179.995
0
LINE
8
BLACK
6
CONTINUOUS
10
106.136
20
-122.252
11
93.1363
21
-122.252
0
LINE
8
BLACK
6
CONTINUOUS
10
97.6152
20
-203.948
11
97.6152
21
-216.948
0
ARC
8
BLACK
10
304.471
20
-167.223
40
0.500003
50
-270
51
-179.995
0
ARC
8
BLACK
10
92.0652
20
-203.948
40
0.499953
50
-0.0053853
51
89.9946
0
LINE
8
BLACK
6
CONTINUOUS
10
226.703
20
-160.298
11
239.703
21
-160.298
0
LINE
8
BLACK
6
CONTINUOUS
10
310.821
20
-196.523
11
310.821
21
-195.673
0
ARC
8
BLACK
10
230.178
20
-165.848
40
0.499953
50
-0.0053853
51
89.9946
0
LINE
8
BLACK
6
CONTINUOUS
10
106.853
20
-159.798
11
106.853
21
-146.798
0
ARC
8
BLACK
10
83.8277
20
-178.848
40
0.500047
50
-179.995
51
-89.9946
0
ARC
8
BLACK
10
121.928
20
-178.848
40
0.500047
50
-179.995
51
-89.9946
0
ARC
8
BLACK
10
187.315
20
-216.948
40
0.500047
50
-89.9946
51
-0.0053853
0
ARC
8
BLACK
10
115.878
20
-178.848
40
0.500047
50
-89.9946
51
-0.0053853
0
LINE
8
BLACK
6
CONTINUOUS
10
40.4652
20
-165.848
11
40.4652
21
-178.848
0
ARC
8
BLACK
10
145.74
20
-197.898
40
0.500047
50
-179.995
51
-89.9946
0
ARC
8
BLACK
10
125.403
20
-146.798
40
0.499953
50
-0.0053853
51
89.9946
0
ARC
8
BLACK
10
345.765
20
-235.998
40
0.500047
50
-179.995
51
-89.9946
0
ARC
8
BLACK
10
306.378
20
-146.798
40
0.499953
50
-0.0053853
51
89.9946
0
ARC
8
BLACK
10
188.603
20
-146.798
40
0.499953
50
-270.005
51
-179.995
0
LINE
8
BLACK
6
CONTINUOUS
10
192.865
20
-203.948
11
192.865
21
-216.948
0
ARC
8
BLACK
10
62.3965
20
-222.998
40
0.500003
50
-270
51
-179.995
0
ARC
8
BLACK
10
98.1152
20
-216.948
40
0.500047
50
-179.995
51
-89.9946
0
LINE
8
BLACK
6
CONTINUOUS
10
164.79
20
-198.398
11
177.79
21
-198.398
0
LINE
8
BLACK
6
CONTINUOUS
10
99.709
20
-235.998
11
99.709
21
-222.998
0
ARC
8
BLACK
10
339.715
20
-178.848
40
0.500047
50
-89.9946
51
-0.0053853
0
ARC
8
BLACK
10
69.5402
20
-197.898
40
0.500047
50
-179.995
51
-89.9946
0
LINE
8
BLACK
6
CONTINUOUS
10
38.584
20
-236.498
11
51.584
21
-236.498
0
ARC
8
BLACK
10
164.79
20
-197.898
40
0.500047
50
-179.995
51
-89.9946
0
ARC
8
BLACK
10
364.599
20
-135.752
40
0.5
50
-180
51
-90
0
ARC
8
BLACK
10
364.815
20
-178.848
40
0.500047
50
-179.995
51
-89.9946
0
LINE
8
BLACK
6
CONTINUOUS
10
254.778
20
-165.848
11
254.778
21
-178.848
0
LINE
8
BLACK
6
CONTINUOUS
10
314.971
20
-192.073
11
310.821
21
-192.073
0
ARC
8
BLACK
10
188.603
20
-159.798
40
0.500047
50
-179.995
51
-89.9946
0
LINE
8
BLACK
6
CONTINUOUS
10
112.346
20
-221.548
11
112.346
21
-225.698
0
ARC
8
BLACK
10
177.79
20
-197.898
40
0.500047
50
-89.9946
51
-0.0053853
0
LINE
8
BLACK
6
CONTINUOUS
10
49.2027
20
-146.298
11
36.2027
21
-146.298
0
LINE
8
BLACK
6
CONTINUOUS
10
364.815
20
-179.348
11
377.815
21
-179.348
0
ARC
8
BLACK
10
302.084
20
-212.998
40
0.500047
50
-179.995
51
-90.0003
0
ARC
8
BLACK
10
326.499
20
-135.752
40
0.5
50
-180
51
-90
0
LINE
8
BLACK
6
CONTINUOUS
10
112.403
20
-160.298
11
125.403
21
-160.298
0
LINE
8
BLACK
6
CONTINUOUS
10
276.209
20
-222.998
11
276.209
21
-235.998
0
ARC
8
BLACK
10
274.328
20
-178.848
40
0.500047
50
-179.995
51
-89.9946
0
LINE
8
BLACK
6
CONTINUOUS
10
54.4652
20
-178.848
11
54.4652
21
-165.848
0
ARC
8
BLACK
10
289.709
20
-235.998
40
0.499997
50
-90.0003
51
-0.00538584
0
LINE
8
BLACK
6
CONTINUOUS
10
98.1152
20
-217.448
11
111.115
21
-217.448
0
ARC
8
BLACK
10
69.5402
20
-184.898
40
0.499953
50
-270.005
51
-179.995
0
LINE
8
BLACK
6
CONTINUOUS
10
287.828
20
-178.848
11
287.828
21
-165.848
0
ARC
8
BLACK
10
136.215
20
-203.948
40
0.499953
50
-270.005
51
-179.995
0
ARC
8
BLACK
10
264.586
20
-122.752
40
0.5
50
90
51
180
0
ARC
8
BLACK
10
326.715
20
-165.848
40
0.499953
50
-270.005
51
-179.995
0
LINE
8
BLACK
6
CONTINUOUS
10
340.215
20
-178.848
11
340.215
21
-165.848
0
ARC
8
BLACK
10
313.522
20
-175.373
40
0.499953
50
-0.00538584
51
90.0003
0
LINE
8
BLACK
6
CONTINUOUS
10
310.078
20
-145.348
11
310.078
21
-149.498
0
CIRCLE
8
BLACK
10
204.619
20
-143.702
40
1.3
0
LINE
8
BLACK
6
CONTINUOUS
10
130.736
20
-122.752
11
130.736
21
-135.752
  0
ENDSEC
  0
EOF
